<?xml version="1.0" standalone="no"?>
<!DOCTYPE svg PUBLIC "-//W3C//DTD SVG 20010904//EN"
 "http://www.w3.org/TR/2001/REC-SVG-20010904/DTD/svg10.dtd">
<svg version="1.0" xmlns="http://www.w3.org/2000/svg"
 width="899.000000pt" height="277.000000pt" viewBox="0 0 899.000000 277.000000"
 preserveAspectRatio="xMidYMid meet">

<g transform="translate(0.000000,277.000000) scale(0.100000,-0.100000)"
fill="#000000" stroke="none">
<path d="M1867 1950 c-20 -5 -56 -19 -80 -31 -113 -57 -346 -289 -400 -398
-29 -59 -32 -74 -32 -156 0 -109 22 -163 100 -241 61 -62 108 -88 141 -80 31
8 31 39 2 53 -46 21 -127 105 -154 158 -22 47 -26 65 -22 122 5 99 34 148 162
281 112 115 201 187 266 213 57 22 146 17 210 -12 109 -51 174 -147 173 -259
0 -107 -49 -183 -236 -361 -79 -75 -90 -90 -81 -106 6 -10 18 -19 27 -21 21
-4 255 228 301 298 99 152 77 324 -57 447 -87 79 -220 118 -320 93z"/>
<path d="M2842 1772 c-10 -7 -12 -124 -10 -553 l3 -544 72 -3 73 -3 2 343 3
343 68 3 c42 2 74 -2 83 -9 12 -9 14 -70 14 -345 l0 -334 70 0 71 0 -3 358
c-3 339 -4 358 -23 384 -44 60 -154 80 -239 44 -21 -9 -40 -16 -42 -16 -2 0
-5 75 -6 168 l-3 167 -60 3 c-33 1 -66 -2 -73 -6z"/>
<path d="M4770 1768 c-74 -21 -100 -68 -109 -197 l-6 -96 -38 -3 -38 -3 3 -52
c3 -51 4 -52 38 -57 l35 -5 5 -340 5 -340 70 0 70 0 5 340 5 340 58 3 57 3 0
54 0 54 -57 3 -58 3 -3 87 -3 87 58 3 58 3 3 56 c3 52 1 57 -20 63 -33 8 -97
6 -138 -6z"/>
<path d="M7323 1773 l-43 -4 0 -65 0 -64 69 0 c39 0 72 3 74 8 2 4 2 35 -1 70
-5 69 4 64 -99 55z"/>
<path d="M8312 1223 l3 -548 73 -3 72 -3 0 551 0 550 -75 0 -75 0 2 -547z"/>
<path d="M5412 1462 c-28 -11 -61 -27 -72 -37 -28 -25 -44 -116 -37 -211 12
-163 56 -204 220 -204 l67 0 0 -110 0 -109 -41 -13 c-34 -10 -46 -9 -68 3 -22
12 -26 22 -27 59 l0 45 -67 3 c-64 3 -67 2 -73 -23 -9 -36 3 -105 25 -141 16
-26 29 -33 82 -45 173 -37 283 3 308 111 24 103 7 250 -34 297 -20 25 -30 27
-121 33 -55 3 -105 9 -112 13 -8 6 -12 41 -12 117 0 124 0 124 85 114 l54 -7
3 -51 3 -51 65 0 65 0 3 55 c4 68 -23 115 -83 145 -56 28 -164 31 -233 7z"/>
<path d="M3510 1070 l0 -400 69 0 69 0 4 298 c3 261 5 301 21 329 22 41 45 53
101 53 l46 0 0 60 0 60 -32 0 c-36 0 -95 -31 -104 -55 -4 -8 -13 -15 -21 -15
-10 0 -14 9 -11 33 l3 32 -72 3 -73 3 0 -401z"/>
<path d="M4051 1453 c-19 -10 -44 -31 -55 -46 -20 -27 -21 -41 -21 -330 0
-270 2 -305 18 -334 34 -63 125 -87 272 -72 50 5 98 12 107 15 27 8 68 102 68
156 0 55 -11 61 -96 56 l-49 -3 -3 -52 c-3 -47 -6 -54 -28 -59 -32 -8 -134 2
-146 14 -5 5 -7 58 -6 118 l3 109 163 3 162 2 -1 163 c0 259 -9 270 -217 275
-116 3 -142 0 -171 -15z m236 -105 c9 -7 13 -41 13 -115 l0 -104 -92 3 -93 3
-3 94 c-2 60 1 98 9 107 26 32 133 40 166 12z"/>
<path d="M6002 1450 c-18 -11 -41 -34 -52 -52 -19 -31 -20 -51 -20 -323 0
-319 3 -335 63 -379 24 -18 46 -21 155 -24 149 -4 188 5 231 53 l31 36 0 307
c0 283 -2 309 -19 338 -32 53 -72 64 -223 64 -115 0 -137 -3 -166 -20z m256
-102 c9 -9 12 -84 12 -278 0 -194 -3 -269 -12 -278 -16 -16 -150 -16 -166 0
-9 9 -12 86 -12 283 0 150 3 275 7 278 12 12 158 8 171 -5z"/>
<path d="M6703 1460 c-43 -14 -80 -61 -88 -113 -4 -24 -5 -162 -3 -308 4 -305
6 -316 85 -351 63 -28 248 -23 307 8 48 25 76 74 76 134 0 88 -4 91 -79 88
l-66 -3 -5 -65 -5 -65 -60 -3 c-32 -2 -69 -1 -82 3 l-23 5 0 280 0 280 23 5
c13 4 50 5 82 3 l60 -3 5 -65 5 -65 70 0 70 0 0 76 c-1 135 -38 162 -220 166
-66 1 -134 -2 -152 -7z"/>
<path d="M7280 1070 l0 -400 70 0 70 0 0 400 0 400 -70 0 -70 0 0 -400z"/>
<path d="M7704 1456 c-64 -29 -64 -28 -64 -369 0 -343 2 -358 65 -397 48 -30
137 -27 201 5 27 14 50 25 51 25 1 0 3 -10 5 -22 3 -21 9 -23 66 -26 l62 -3 0
401 0 400 -69 0 c-67 0 -68 0 -63 -25 l4 -25 -48 22 c-61 27 -167 34 -210 14z
m228 -113 c17 -15 18 -37 18 -274 0 -255 0 -258 -22 -273 -30 -21 -106 -21
-130 1 -17 15 -18 37 -18 279 0 298 -5 283 84 284 32 0 56 -6 68 -17z"/>
<path d="M1543 1423 c-5 -12 3 -25 27 -42 126 -97 170 -165 170 -266 0 -81
-28 -135 -128 -250 -90 -103 -199 -198 -273 -238 -93 -50 -227 -31 -312 43
-58 52 -84 93 -98 160 -25 118 24 213 204 390 64 63 117 120 117 127 0 7 -9
17 -20 23 -17 9 -34 -2 -129 -89 -187 -173 -245 -265 -245 -396 -1 -71 3 -88
31 -146 39 -79 102 -140 181 -177 48 -23 71 -27 147 -27 86 0 94 2 165 40 59
31 104 68 211 175 119 117 142 145 175 214 35 72 39 87 39 160 0 62 -5 92 -21
127 -55 118 -217 234 -241 172z"/>
</g>
</svg>
